{
  "asset": {
    "version": "2.0",
    "generator": "Sketchup glTF Exporter v1.2.6 by Centaur"
  },
  "scene": 0,
  "scenes": [
    {
      "nodes": [
        0
      ]
    }
  ],
  "samplers": [
    {
    }
  ],
  "nodes": [
    {
      "name": "root",
      "mesh": 0
    }
  ],
  "materials": [
    {
      "pbrMetallicRoughness": {
        "baseColorTexture": {
          "index": 0
        },
        "roughnessFactor": 0.1
      },
      "name": "Steel Brushed Stainless"
    },
    {
      "pbrMetallicRoughness": {
        "baseColorTexture": {
          "index": 1
        },
        "roughnessFactor": 0.1
      },
      "name": "Metal Aluminum Anodized"
    }
  ],
  "images": [
    {
      "bufferView": 0,
      "mimeType": "image/jpeg"
    },
    {
      "bufferView": 1,
      "mimeType": "image/jpeg"
    }
  ],
  "textures": [
    {
      "source": 0,
      "sampler": 0
    },
    {
      "source": 1,
      "sampler": 0
    }
  ],
  "meshes": [
    {
      "primitives": [
        {
          "attributes": {
            "POSITION": 0,
            "NORMAL": 1,
            "TEXCOORD_0": 2
          },
          "indices": 3,
          "mode": 4,
          "material": 0
        },
        {
          "attributes": {
            "POSITION": 0,
            "NORMAL": 1,
            "TEXCOORD_0": 2
          },
          "indices": 4,
          "mode": 4,
          "material": 1
        }
      ]
    }
  ],
  "accessors": [
    {
      "bufferView": 2,
      "componentType": 5126,
      "count": 312,
      "type": "VEC3",
      "min": [
        0.0,
        -6.123233995736766e-17,
        -1.0
      ],
      "max": [
        1.0000000000000002,
        1.0,
        1.077158385912707e-15
      ]
    },
    {
      "bufferView": 3,
      "componentType": 5126,
      "count": 312,
      "type": "VEC3",
      "min": [
        -1.0,
        -1.0,
        -1.0
      ],
      "max": [
        1.0,
        1.0,
        1.0
      ]
    },
    {
      "bufferView": 4,
      "componentType": 5126,
      "count": 312,
      "type": "VEC2",
      "min": [
        -0.7144940215806358,
        0.3146689997083697
      ],
      "max": [
        0.7144940215806358,
        1.0
      ]
    },
    {
      "bufferView": 5,
      "componentType": 5123,
      "count": 282,
      "type": "SCALAR"
    },
    {
      "bufferView": 5,
      "componentType": 5123,
      "count": 330,
      "type": "SCALAR",
      "byteOffset": 564
    }
  ],
  "bufferViews": [
    {
      "buffer": 0,
      "byteLength": 27544
    },
    {
      "buffer": 0,
      "byteOffset": 27544,
      "byteLength": 2508
    },
    {
      "buffer": 0,
      "byteOffset": 30060,
      "byteLength": 3744,
      "target": 34962,
      "byteStride": 12
    },
    {
      "buffer": 0,
      "byteOffset": 33804,
      "byteLength": 3744,
      "target": 34962,
      "byteStride": 12
    },
    {
      "buffer": 0,
      "byteOffset": 37552,
      "byteLength": 2496,
      "target": 34962,
      "byteStride": 8
    },
    {
      "buffer": 0,
      "byteOffset": 40048,
      "byteLength": 1224,
      "target": 34963
    }
  ],
  "buffers": [
    {
      "uri": "data:application/octet-stream;base64,",
      "byteLength": 41272
    }
  ]
}