{
  "asset": {
    "version": "2.0",
    "generator": "Sketchup glTF Exporter v1.2.6 by Centaur"
  },
  "scene": 0,
  "scenes": [
    {
      "nodes": [
        0
      ]
    }
  ],
  "samplers": [
    {
    }
  ],
  "nodes": [
    {
      "name": "root",
      "mesh": 0
    }
  ],
  "materials": [
    {
      "pbrMetallicRoughness": {
        "baseColorTexture": {
          "index": 0
        },
        "metallicFactor": 0,
        "roughnessFactor": 0.1
      },
      "name": "Steel Brushed Stainless"
    },
    {
      "pbrMetallicRoughness": {
        "baseColorTexture": {
          "index": 1
        },
        "metallicFactor": 0,
        "roughnessFactor": 0.1
      },
      "name": "Metal Aluminum Anodized"
    },
    {
      "pbrMetallicRoughness": {
        "baseColorFactor": [
          0.0278,
          0.0278,
          1.0,
          1.0
        ],
        "metallicFactor": 0.1,
        "roughnessFactor": 0.9
      },
      "name": "Color I04"
    }
  ],
  "images": [
    {
      "bufferView": 0,
      "mimeType": "image/jpeg"
    },
    {
      "bufferView": 1,
      "mimeType": "image/jpeg"
    }
  ],
  "textures": [
    {
      "source": 0,
      "sampler": 0
    },
    {
      "source": 1,
      "sampler": 0
    }
  ],
  "meshes": [
    {
      "primitives": [
        {
          "attributes": {
            "POSITION": 2,
            "NORMAL": 3,
            "TEXCOORD_0": 4
          },
          "indices": 5,
          "mode": 4,
          "material": 0
        },
        {
          "attributes": {
            "POSITION": 2,
            "NORMAL": 3,
            "TEXCOORD_0": 4
          },
          "indices": 6,
          "mode": 4,
          "material": 1
        },
        {
          "attributes": {
            "POSITION": 0,
            "NORMAL": 1
          },
          "indices": 7,
          "mode": 4,
          "material": 2
        }
      ]
    }
  ],
  "accessors": [
    {
      "bufferView": 2,
      "componentType": 5126,
      "count": 432,
      "type": "VEC3",
      "min": [
        0.45999999999999996,
        0.0599999999999999,
        -0.9600000000000001
      ],
      "max": [
        0.5400000000000003,
        0.94,
        1.1190669153771741e-15
      ]
    },
    {
      "bufferView": 3,
      "componentType": 5126,
      "count": 432,
      "type": "VEC3",
      "min": [
        -1.0,
        -1.0,
        -2.524316900328928e-16
      ],
      "max": [
        1.0,
        1.0,
        2.524316900328928e-16
      ]
    },
    {
      "bufferView": 4,
      "componentType": 5126,
      "count": 532,
      "type": "VEC3",
      "min": [
        0.0,
        -6.123233995736766e-17,
        -1.0
      ],
      "max": [
        1.0000000000000002,
        1.0,
        1.1190669153771741e-15
      ]
    },
    {
      "bufferView": 5,
      "componentType": 5126,
      "count": 532,
      "type": "VEC3",
      "min": [
        -1.0,
        -1.0,
        -1.0
      ],
      "max": [
        1.0,
        1.0,
        1.0
      ]
    },
    {
      "bufferView": 6,
      "componentType": 5126,
      "count": 532,
      "type": "VEC2",
      "min": [
        -0.7144940215806358,
        0.2855059784193642
      ],
      "max": [
        0.7144940215806358,
        1.0
      ]
    },
    {
      "bufferView": 8,
      "componentType": 5123,
      "count": 120,
      "type": "SCALAR"
    },
    {
      "bufferView": 8,
      "componentType": 5123,
      "count": 1356,
      "type": "SCALAR",
      "byteOffset": 240
    },
    {
      "bufferView": 7,
      "componentType": 5123,
      "count": 1296,
      "type": "SCALAR"
    }
  ],
  "bufferViews": [
    {
      "buffer": 0,
      "byteLength": 27544
    },
    {
      "buffer": 0,
      "byteOffset": 27544,
      "byteLength": 2508
    },
    {
      "buffer": 0,
      "byteOffset": 30060,
      "byteLength": 5184,
      "target": 34962,
      "byteStride": 12
    },
    {
      "buffer": 0,
      "byteOffset": 35244,
      "byteLength": 5184,
      "target": 34962,
      "byteStride": 12
    },
    {
      "buffer": 0,
      "byteOffset": 40428,
      "byteLength": 6384,
      "target": 34962,
      "byteStride": 12
    },
    {
      "buffer": 0,
      "byteOffset": 46812,
      "byteLength": 6384,
      "target": 34962,
      "byteStride": 12
    },
    {
      "buffer": 0,
      "byteOffset": 53200,
      "byteLength": 4256,
      "target": 34962,
      "byteStride": 8
    },
    {
      "buffer": 0,
      "byteOffset": 57456,
      "byteLength": 2592,
      "target": 34963
    },
    {
      "buffer": 0,
      "byteOffset": 60048,
      "byteLength": 2952,
      "target": 34963
    }
  ],
  "buffers": [
    {
      "uri": "data:application/octet-stream;base64,",
      "byteLength": 63000
    }
  ]
}